<?xml version="1.0" encoding="UTF-8"?> 

<svg xmlns="http://www.w3.org/2000/svg" xmlns:xlink="http://www.w3.org/1999/xlink">
	<defs>
	<g id="card_blank">
			<rect width="101" height="101" style="fill: #FFFFFF; stroke: #808080; stroke-width: 1"/>
	</g>
	 <style>
    g {
      display: none;
    }
    g:target {
      display: inline;
    }
  </style>
	</defs>
		
		
		
		<g id = "flipside">
			<use xlink:href="#card_blank"/>
			<rect x = "5" y = "5" width="90" height="90" style="fill: #3070B3; stroke: none; stroke-width: 2"/>
    		<path stroke="#FFFFFF" fill="transparent" stroke-width="5" d="M20 20 L 30 20 L 30 45 L 30 20 L 42.5 20 L42.5 42.5 L55 42.5 L55 20 L67.5 20 L67.5 45 L67.5 20 L70 20 L80 20 L80 45"/>
   			<text x = "20" y = "65" style="fill: #FFFFFF; font-family: verdana;">Memory</text>
		</g>
		
		<g id = "card0">
			<use xlink:href="#card_blank"/>
			<path d="M20,45 l30,-30 l30,30 m-10,-10 l0,50 l-40,0 l0,-50" style="stroke:#808080; stroke-width: 3; fill:none;"/>
			<circle cx="50" cy="45" r="9" style="stroke:#808080; stroke-width: 2; fill: #FFFFFF;"/>
			<circle cx="50" cy="65" r="4" style="stroke:#808080; stroke-width: 2; fill: #FFFFFF;"/>
		</g>
		
		<g id = "card1">
			<use xlink:href="#card_blank"/>
			<rect x="20" y="50" height="25" width="15" rx="5" ry="5" style="stroke:#808080; fill: none; stroke-width: 2;"/>
			<rect x="65" y="50" height="25" width="15" rx="5" ry="5" style="stroke:#808080; fill: none; stroke-width: 2;"/>
			<path d="M15,65 l0,-15 a30,30 0 1,1 70,0 l0,15" style="stroke:#808080; stroke-width: 4; fill:none;"/>
		</g>
		
		
		<g id = "card2">
			<use xlink:href="#card_blank"/>
        	
        	<g transform="rotate(45 45 60)" style="display: inline;">
        	<path d="M20,28 L20,70 a1,1 0 0,0 30,0 l0,-50 a1,1 0 0,0 -25,0 l0,42 a1,1 0 0,0 20,0 l0,-35"
           style="stroke:#808080; stroke-width: 3; fill:none;"/>
        	</g>
        	
		</g>
		
		<g id = "card3">
			<use xlink:href="#card_blank"/>
        	<circle cx="50" cy="50" r="35" style="stroke:#808080; fill:none; stroke-width: 4;"/>
			<circle cx="50" cy="50" r="2" style="stroke:#000000; fill:#000000; stroke-width: 0;"/>
        	<line x1="50" y1="50" x2="50" y2="22"  style="stroke:#000000; stroke-width: 2;"/>
			<line x1="50" y1="50" x2="63" y2="63"  style="stroke:#000000; stroke-width: 2;"/>
		</g>
		
		
		
		<g id = "card4">
			<use xlink:href="#card_blank"/>
        	
        	<line x1="53" y1="38" x2="70" y2="20"  style="stroke:#f7ac6a; stroke-width: 2;"/>
        	<circle cx="53" cy="38" r="3" style="stroke:red; fill:red"/>
        	<path d="M30,80 a3,3 0 0,0 0,6 l35,0 a3,3 0 0,0 0,-6 l-15,0 l0,-30 l30,-25 l-65,0 l30,25 l0,30 l-15,0"
            style="stroke:#808080; stroke-width: 3; fill:none;"/>
            
           
	
		</g>
		
		<g id = "card5">
			<use xlink:href="#card_blank"/>
        	<path d="M10,70 a10,10 0 0,0 10,10 l60,0 a10,10 0 0,0 10,-10 l-80,0 Z"
            style="stroke:#808080; stroke-width: 3; fill:#808080;"/>
            <path d="M12,55 a10,10 0 0,0 10,10 l45,0 a10,10 0 0,0 10,-10 l0,-5 a15,14 0 0,0 0,-30 l0,6 a15,10 0 0,1 0,18 l0,6 m0,-6 l0,-24 l0,-3 l-65,0 l0,40"
            style="stroke:#808080; stroke-width: 3; fill:none;"/>
	
		</g>
		
		
		<g id = "card6">
			<use xlink:href="#card_blank"/>
        	
        	<circle cx="50" cy="50" r="40" stroke="none" stroke-width="none" fill="#808080" />
        	
        	<polygon points="50,25 35,72 72.5,42 27.5,42 65,72"
  style="fill:#FFFFFF;stroke:#FFFFFF;stroke-width:4;" />
        	
		</g>
		
		
		<g id = "card7">
			<use xlink:href="#card_blank"/>
        	
        	
        	<polygon points="40,40 80,40 90,50 80,60 72,53 68,56 60,50 54,60 40,60" style="stroke:#202020; fill:#808080; stroke-width: 1;"/>
        	<path d="M40,43 L77,43 M40,45 L77,45 M40,47 L77,47"
           style="stroke:#202020; stroke-width: 0.5; fill:none;"/>
        	<circle cx="25" cy="50" r="20" style="stroke:#202020; stroke-width: 1; fill: #808080;"/>
        	<circle cx="15" cy="50" r="5" style="stroke:#202020; stroke-width: 1; fill: #FFFFFF;"/>
        	
		</g>
		
		
		
		<g id = "card8">
			<use xlink:href="#card_blank"/>
			<rect x="20" y="45" height="40" width="60"
        	style="stroke:none; fill: #e2b863;"/>
        	<circle cx="50" cy="60" r="5" style="stroke:#808080; stroke-width: 0; fill: #808080;"/>
        	<polygon points="50,55  45,75 55,75" style="fill:#808080;"/>
			<path d="M32,45 L32,30 A40,100 0 0,1 68,30 L68,45"
           style="stroke:#808080; stroke-width: 8; fill:none;" stroke-linejoin="round"/>
		</g>
		
		
		<g id = "card9">
			<use xlink:href="#card_blank"/>
			<rect x="10" y="25" height="50" width="80"
        	style="stroke:none; fill: #808080;"/>
			<path d="M10,25 L50,50 L90,25"
           style="stroke:#FFFFFF; stroke-width: 3; fill:none;" stroke-linejoin="round"/>
		</g>
		
		<g id = "card10">
			<use xlink:href="#card_blank"/>
			<path d="M10,50 q40,35 80,0 q-40,-35 -80,0 Z"
            style="stroke:#808080; stroke-width: 3; fill:none;"/>
            <circle cx="50" cy="50" r="12" style="stroke:#808080; stroke-width: 3; fill:#FFFFFF"/>
            <circle cx="50" cy="50" r="6" style="stroke:#808080; stroke-width: 3; fill:#808080"/>
		</g>
		
		<g id = "card11">
			<use xlink:href="#card_blank"/>
			<rect x="25" y="20" width="50" height="60" style="fill: #FFFFFF; stroke: #808080; stroke-width: 2"/>
			<rect x="26" y="21" width="48" height="9" style="fill: #808080; stroke: #808080;"/>
			<rect x="32" y="10" width="10" height="15" style="fill: #808080; stroke: #FFFFFF; stroke-width: 2;"/>
			<rect x="57" y="10" width="10" height="15" style="fill: #808080; stroke: #FFFFFF; stroke-width: 2;"/>
			<rect x="30" y="40" width="40" height="35" style="fill: #FFFFFF; stroke: #808080; stroke-width: 2"/>
			<text x="38"  y="62" style="fill: #808080; font-family: verdana; font-weight: bold;">12</text>
		</g>
		
		<g id = "card12">
			<use xlink:href="#card_blank"/>
			<circle cx="25" cy="60" r="15" style="stroke:#808080; stroke-width: 3; fill: none;"/>
			<circle cx="75" cy="60" r="15" style="stroke:#808080; stroke-width: 3; fill: none;"/>
			<path d="M25,60 L41,28 L51,28 M35,40 L60,40 L75,60 L50,60 L35,40 M50,60 L63,34 M58,34 L68,34"
          style="stroke:#808080; stroke-width: 3; fill:none;" stroke-linejoin="round"/>    
		</g>
		
		
		<g id = "card13">
				<use xlink:href="#card_blank"/>
				<rect x="18" y="10" height="80" width="64" rx="5" ry="5" style="stroke:#808080; fill: #808080; stroke-width: 0;"/>
				<rect x="22" y="17" height="13" width="56" rx="5" ry="5" style="stroke:#808080; fill: #FFFFFF; stroke-width: 0;"/>
				<text x="30"  y="26" style="fill: #000000; font-family: verdana; font-size: 8px;">4 x 3 = 12</text>
				<circle cx="29" cy="45" r="5" style="stroke:#808080; stroke-width: 0; fill: #FFFFFF;"/>
				<circle cx="43" cy="45" r="5" style="stroke:#808080; stroke-width: 0; fill: #FFFFFF;"/>
				<circle cx="57" cy="45" r="5" style="stroke:#808080; stroke-width: 0; fill: #FFFFFF;"/>
				<circle cx="71" cy="45" r="5" style="stroke:#808080; stroke-width: 0; fill: #FFFFFF;"/>
				
				<circle cx="29" cy="59" r="5" style="stroke:#808080; stroke-width: 0; fill: #FFFFFF;"/>
				<circle cx="43" cy="59" r="5" style="stroke:#808080; stroke-width: 0; fill: #FFFFFF;"/>
				<circle cx="57" cy="59" r="5" style="stroke:#808080; stroke-width: 0; fill: #FFFFFF;"/>
				<circle cx="71" cy="59" r="5" style="stroke:#808080; stroke-width: 0; fill: #FFFFFF;"/>
				
				<circle cx="29" cy="73" r="5" style="stroke:#808080; stroke-width: 0; fill: #FFFFFF;"/>
				<circle cx="43" cy="73" r="5" style="stroke:#808080; stroke-width: 0; fill: #FFFFFF;"/>
				<circle cx="57" cy="73" r="5" style="stroke:#808080; stroke-width: 0; fill: #FFFFFF;"/>
				<circle cx="71" cy="73" r="5" style="stroke:#808080; stroke-width: 0; fill: #FFFFFF;"/>	
		</g>
		
		<g id = "card14">
			<use xlink:href="#card_blank"/>
			<path d="M50,80 l30,-30 a1,1 0 0,0 -28,-28 l-2,2 l-2,-2 a1,1 0 0,0 -28,28 l30,30 Z" style="stroke:#808080; stroke-width: 4; fill:none;"/>   
		</g>
		
		
		

</svg>